<svg width="37" height="37" viewBox="0 0 37 37" fill="none" xmlns="http://www.w3.org/2000/svg">
<path d="M14.4297 7.65235V7.65235C13.0362 7.65235 12.3394 7.65235 11.7564 7.74468C8.54724 8.25297 6.03031 10.7699 5.52202 13.9791C5.42969 14.5621 5.42969 15.2588 5.42969 16.6524V19.6524C5.42969 23.8528 5.42969 25.9529 6.24714 27.5573C6.96619 28.9685 8.11355 30.1159 9.52476 30.8349C11.1291 31.6524 13.2293 31.6524 17.4297 31.6524H20.4297C24.6301 31.6524 26.7303 31.6524 28.3346 30.8349C29.7458 30.1159 30.8932 28.9685 31.6123 27.5573C32.4297 25.9529 32.4297 23.8528 32.4297 19.6524V16.6523C32.4297 15.2588 32.4297 14.5621 32.3374 13.9791C31.8291 10.7699 29.3122 8.25297 26.103 7.74468C25.52 7.65235 24.8232 7.65235 23.4297 7.65235V7.65235M14.4297 7.65235V9.90235M14.4297 7.65235V4.65234M14.4297 7.65235H23.4297M23.4297 7.65235V4.65234M23.4297 7.65235V9.90235M18.9297 25.6524V15.1524M12.1797 25.6524V15.1524M25.6797 25.6524V15.1524" stroke="#29475A" stroke-width="2.25" stroke-linecap="round" stroke-linejoin="round"/>
</svg>
