<svg width="37" height="37" viewBox="0 0 37 37" fill="none" xmlns="http://www.w3.org/2000/svg">
<path d="M15.5547 12.5781C15.5547 13.4066 14.8831 14.0781 14.0547 14.0781C13.2263 14.0781 12.5547 13.4066 12.5547 12.5781C12.5547 11.7497 13.2263 11.0781 14.0547 11.0781C14.8831 11.0781 15.5547 11.7497 15.5547 12.5781Z" fill="#29475A"/>
<path d="M18.9297 12.5781H24.1797M13.6797 18.5781H24.1797M13.6797 24.5781H24.1797M16.5297 32.0781H21.3297C24.7045 32.0781 26.3918 32.0781 27.5747 31.2187C27.9568 30.9412 28.2927 30.6052 28.5703 30.2232C29.4297 29.0403 29.4297 27.3529 29.4297 23.9781V13.1781C29.4297 9.80337 29.4297 8.11599 28.5703 6.93309C28.2927 6.55107 27.9568 6.21511 27.5747 5.93755C26.3918 5.07812 24.7045 5.07812 21.3297 5.07812H16.5297C13.1549 5.07812 11.4676 5.07812 10.2847 5.93755C9.90263 6.21511 9.56667 6.55107 9.28911 6.93309C8.42969 8.11599 8.42969 9.80337 8.42969 13.1781V23.9781C8.42969 27.3529 8.42969 29.0403 9.28911 30.2232C9.56667 30.6052 9.90263 30.9412 10.2847 31.2187C11.4676 32.0781 13.1549 32.0781 16.5297 32.0781Z" stroke="#29475A" stroke-width="2.25" stroke-linecap="round" stroke-linejoin="round"/>
</svg>
