<svg width="37" height="36" viewBox="0 0 37 36" fill="none" xmlns="http://www.w3.org/2000/svg">
<path d="M9.38375 11.0459C13.3609 7.06875 15.3495 5.08016 17.7564 4.69894C18.5338 4.57582 19.3256 4.57582 20.103 4.69894C22.5098 5.08016 24.4984 7.06875 28.4756 11.0459V11.0459C30.2072 12.7775 31.073 13.6433 31.6122 14.7017C31.7906 15.0518 31.9412 15.4153 32.0626 15.789C32.4297 16.9187 32.4297 18.1431 32.4297 20.5919V27C32.4297 29.4853 30.415 31.5 27.9297 31.5V31.5C25.4444 31.5 23.4297 29.4853 23.4297 27V25.5C23.4297 23.0147 21.415 21 18.9297 21V21C16.4444 21 14.4297 23.0147 14.4297 25.5V27C14.4297 29.4853 12.415 31.5 9.92969 31.5V31.5C7.44441 31.5 5.42969 29.4853 5.42969 27V20.5919C5.42969 18.1431 5.42969 16.9187 5.79676 15.789C5.91818 15.4153 6.06877 15.0518 6.24714 14.7017C6.78643 13.6433 7.6522 12.7775 9.38375 11.0459V11.0459Z" stroke="#29475A" stroke-width="2.25" stroke-linejoin="round"/>
</svg>
