<svg width="37" height="37" viewBox="0 0 37 37" fill="none" xmlns="http://www.w3.org/2000/svg">
<path d="M5.42969 18.7305V13.3305C5.42969 9.95571 5.42969 8.26833 6.28911 7.08544C6.56667 6.70341 6.90263 6.36745 7.28466 6.08989C8.46755 5.23047 10.1549 5.23047 13.5297 5.23047H15.0285C15.8414 5.23047 16.2478 5.23047 16.6383 5.29985C17.1165 5.3848 17.5778 5.54662 18.0043 5.77901C18.3526 5.96879 18.67 6.22268 19.3047 6.73047V6.73047C19.9394 7.23826 20.2568 7.49215 20.6051 7.68193C21.0316 7.91432 21.4929 8.07614 21.9711 8.16109C22.3616 8.23047 22.768 8.23047 23.5809 8.23047H24.3297C27.7045 8.23047 29.3918 8.23047 30.5747 9.08989C30.9568 9.36745 31.2927 9.70341 31.5703 10.0854C32.4297 11.2683 32.4297 12.9557 32.4297 16.3305V18.7305M15.0285 11.2305H13.5297C10.1549 11.2305 8.46755 11.2305 7.28466 12.0899C6.90263 12.3675 6.56667 12.7034 6.28911 13.0854C5.42969 14.2683 5.42969 15.9557 5.42969 19.3305V24.1305C5.42969 27.5052 5.42969 29.1926 6.28911 30.3755C6.56667 30.7575 6.90263 31.0935 7.28466 31.3711C8.46755 32.2305 10.1549 32.2305 13.5297 32.2305H24.3297C27.7045 32.2305 29.3918 32.2305 30.5747 31.3711C30.9568 31.0935 31.2927 30.7575 31.5703 30.3755C32.4297 29.1926 32.4297 27.5052 32.4297 24.1305V22.3305C32.4297 18.9557 32.4297 17.2683 31.5703 16.0854C31.2927 15.7034 30.9568 15.3675 30.5747 15.0899C29.3918 14.2305 27.7045 14.2305 24.3297 14.2305H23.5809C22.768 14.2305 22.3616 14.2305 21.9711 14.1611C21.4929 14.0761 21.0316 13.9143 20.6051 13.6819C20.2568 13.4922 19.9394 13.2383 19.3047 12.7305V12.7305C18.67 12.2227 18.3526 11.9688 18.0043 11.779C17.5778 11.5466 17.1165 11.3848 16.6383 11.2998C16.2478 11.2305 15.8414 11.2305 15.0285 11.2305Z" stroke="#29475A" stroke-width="2.25" stroke-linecap="round" stroke-linejoin="round"/>
</svg>
