<svg width="289" height="289" viewBox="0 0 289 289" fill="none" xmlns="http://www.w3.org/2000/svg">
<path d="M192.5 288.055H160.5V256.055H192.5V288.055ZM160.5 176.055H128.5V256.055H160.5V176.055ZM288.5 144.055H256.5V208.055H288.5V144.055ZM256.5 112.055H224.5V144.055H256.5V112.055ZM64.5 144.055H32.5V176.055H64.5V144.055ZM32.5 112.055H0.5V144.055H32.5V112.055ZM144.5 32.0547H176.5V0.0546875H144.5V32.0547ZM24.5 24.0547V72.0547H72.5V24.0547H24.5ZM96.5 96.0547H0.5V0.0546875H96.5V96.0547ZM24.5 216.055V264.055H72.5V216.055H24.5ZM96.5 288.055H0.5V192.055H96.5V288.055ZM216.5 24.0547V72.0547H264.5V24.0547H216.5ZM288.5 96.0547H192.5V0.0546875H288.5V96.0547ZM256.5 256.055V208.055H192.5V240.055H224.5V288.055H288.5V256.055H256.5ZM224.5 144.055H160.5V176.055H224.5V144.055ZM160.5 112.055H64.5V144.055H96.5V176.055H128.5V144.055H160.5V112.055ZM176.5 96.0547V64.0547H144.5V32.0547H112.5V96.0547H176.5ZM60.5 36.0547H36.5V60.0547H60.5V36.0547ZM60.5 228.055H36.5V252.055H60.5V228.055ZM252.5 36.0547H228.5V60.0547H252.5V36.0547Z" fill="#29475A"/>
</svg>
