<svg width="24" height="31" viewBox="0 0 24 31" fill="none" xmlns="http://www.w3.org/2000/svg">
<path d="M11.9297 9.57813H17.1797M6.67969 15.5781H17.1797M6.67969 21.5781H17.1797M9.5297 29.0781H14.3297C17.7045 29.0781 19.3918 29.0781 20.5747 28.2187C20.9568 27.9412 21.2927 27.6052 21.5703 27.2232C22.4297 26.0403 22.4297 24.3529 22.4297 20.9781V10.1781C22.4297 6.80337 22.4297 5.11599 21.5703 3.93309C21.2927 3.55107 20.9568 3.21511 20.5747 2.93755C19.3918 2.07812 17.7045 2.07812 14.3297 2.07812H9.52969C6.15493 2.07812 4.46755 2.07812 3.28466 2.93755C2.90263 3.21511 2.56667 3.55107 2.28911 3.93309C1.42969 5.11599 1.42969 6.80337 1.42969 10.1781V20.9781C1.42969 24.3529 1.42969 26.0403 2.28911 27.2232C2.56667 27.6052 2.90263 27.9412 3.28466 28.2187C4.46755 29.0781 6.15493 29.0781 9.5297 29.0781Z" stroke="#29475A" stroke-width="2.25" stroke-linecap="round" stroke-linejoin="round"/>
</svg>
